<?xml version="1.0" standalone="no"?>
<!DOCTYPE svg PUBLIC "-//W3C//DTD SVG 20010904//EN"
 "http://www.w3.org/TR/2001/REC-SVG-20010904/DTD/svg10.dtd">
<svg version="1.0" xmlns="http://www.w3.org/2000/svg"
 width="1000.000000pt" height="1000.000000pt" viewBox="0 0 1000.000000 1000.000000"
 preserveAspectRatio="xMidYMid meet">
<metadata>
Created by potrace 1.11, written by Peter Selinger 2001-2013
</metadata>
<g transform="translate(0.000000,1000.000000) scale(0.100000,-0.100000)"
fill="#000000" stroke="none">
<path d="M2594 7881 c-38 -23 -80 -76 -94 -117 -6 -17 -66 -431 -134 -921 -97
-706 -127 -898 -142 -924 -25 -44 -78 -71 -124 -66 -20 3 -402 154 -850 337
-743 303 -820 332 -875 333 -107 2 -175 -52 -175 -138 0 -45 26 -106 62 -146
12 -15 330 -273 706 -574 406 -325 688 -558 697 -575 23 -44 19 -110 -7 -147
-13 -18 -332 -280 -710 -582 -765 -613 -743 -592 -743 -708 0 -74 20 -107 86
-141 85 -44 74 -48 961 316 572 235 818 332 845 332 49 0 95 -29 116 -71 10
-23 56 -343 132 -929 80 -618 122 -907 134 -935 21 -49 76 -99 126 -115 80
-27 173 13 220 95 25 42 34 99 145 954 65 501 123 918 129 928 21 41 60 66
108 70 44 4 108 -20 858 -328 l810 -332 90 -5 c50 -2 114 0 141 6 28 6 408
158 845 337 732 301 798 326 842 322 51 -4 80 -24 105 -72 10 -20 56 -341 133
-933 110 -847 119 -906 144 -948 47 -81 140 -121 220 -94 50 16 105 66 126
115 12 28 53 315 134 935 76 582 122 907 132 929 21 42 67 71 116 71 28 0 267
-94 845 -331 886 -364 877 -361 961 -317 66 34 86 67 86 141 -1 116 25 91
-744 708 -381 306 -702 570 -712 585 -23 35 -25 104 -4 144 9 18 290 250 715
591 642 515 701 565 725 612 63 128 -2 233 -145 232 -49 -1 -148 -38 -874
-334 -450 -183 -835 -335 -855 -338 -47 -5 -100 22 -125 66 -15 26 -45 218
-142 923 -68 490 -128 906 -135 925 -22 68 -98 133 -154 133 -65 0 -144 -72
-165 -151 -5 -19 -64 -430 -130 -914 -87 -627 -126 -888 -138 -909 -9 -16 -30
-38 -45 -50 -59 -44 -63 -42 -922 308 -530 216 -821 330 -864 337 -67 12 -167
6 -223 -13 -18 -6 -386 -155 -818 -331 -845 -345 -847 -346 -907 -301 -15 12
-36 34 -45 50 -12 21 -51 277 -138 909 -67 484 -124 891 -127 905 -26 117
-149 192 -229 141z m2511 -1784 c37 -19 1174 -933 1229 -987 32 -31 40 -46 43
-87 4 -34 0 -60 -10 -80 -10 -19 -232 -199 -616 -502 -330 -259 -617 -481
-638 -494 -49 -29 -170 -31 -220 -4 -66 36 -1244 969 -1258 997 -24 47 -19
113 11 150 28 33 140 124 811 663 245 197 446 350 465 356 45 14 147 7 183
-12z"/>
</g>
</svg>
