<svg width="40" height="40" viewBox="0 0 40 40" version="1.1" xmlns="http://www.w3.org/2000/svg" xmlns:xlink="http://www.w3.org/1999/xlink">
<title>arrow</title>
<desc>Created using Figma</desc>
<g id="Canvas" transform="translate(114 305)">
<clipPath id="clip-0" clip-rule="evenodd">
<path d="M -114 -305L -74 -305L -74 -265L -114 -265L -114 -305Z" fill="#FFFFFF"/>
</clipPath>
<g id="arrow" clip-path="url(#clip-0)">
<g id="Rectangle">
<use xlink:href="#path0_fill" transform="translate(-104 -293)" fill="#FFFFFF"/>
<mask id="mask0_outline_ins">
<use xlink:href="#path0_fill" fill="white" transform="translate(-104 -293)"/>
</mask>
<g mask="url(#mask0_outline_ins)">
<use xlink:href="#path1_stroke_2x" transform="translate(-104 -293)" fill="#585858"/>
</g>
</g>
<g id="Rectangle 2">
<use xlink:href="#path2_fill" transform="translate(-97 -295)" fill="#FFFFFF"/>
</g>
<g id="Group">
<g id="Rectangle">
<use xlink:href="#path3_stroke" transform="translate(-94 -294)" fill="#585858"/>
</g>
<g id="Line">
<use xlink:href="#path4_stroke" transform="matrix(0.707107 -0.707107 0.707107 0.707107 -94 -282)" fill="#585858"/>
</g>
</g>
</g>
</g>
<defs>
<path id="path0_fill" d="M 0 0L 19 0L 19 19L 0 19L 0 0Z"/>
<path id="path1_stroke_2x" d="M 0 0L 0 -3L -3 -3L -3 0L 0 0ZM 19 0L 22 0L 22 -3L 19 -3L 19 0ZM 19 19L 19 22L 22 22L 22 19L 19 19ZM 0 19L -3 19L -3 22L 0 22L 0 19ZM 0 3L 19 3L 19 -3L 0 -3L 0 3ZM 16 0L 16 19L 22 19L 22 0L 16 0ZM 19 16L 0 16L 0 22L 19 22L 19 16ZM 3 19L 3 0L -3 0L -3 19L 3 19Z"/>
<path id="path2_fill" d="M 0 0L 14 0L 14 14L 0 14L 0 0Z"/>
<path id="path3_stroke" d="M 10 0L 11.5 0L 11.5 -1.5L 10 -1.5L 10 0ZM 0 1.5L 10 1.5L 10 -1.5L 0 -1.5L 0 1.5ZM 8.5 0L 8.5 10L 11.5 10L 11.5 0L 8.5 0Z"/>
<path id="path4_stroke" d="M 0 0L 14.1421 0L 14.1421 -3L 0 -3L 0 0Z"/>
</defs>
</svg>
